<svg width="15" height="14" viewBox="0 0 15 14" fill="none" xmlns="http://www.w3.org/2000/svg">
<path fill-rule="evenodd" clip-rule="evenodd" d="M10.2383 10.2393L13.9843 13.9853L10.2383 10.2393ZM10.1933 2.57733C10.6934 3.0774 11.0901 3.67107 11.3607 4.32445C11.6314 4.97783 11.7707 5.67811 11.7707 6.38532C11.7707 7.09254 11.6314 7.79282 11.3607 8.4462C11.0901 9.09958 10.6934 9.69325 10.1933 10.1933C9.69325 10.6934 9.09958 11.0901 8.4462 11.3607C7.79282 11.6314 7.09254 11.7707 6.38532 11.7707C5.67811 11.7707 4.97783 11.6314 4.32445 11.3607C3.67107 11.0901 3.0774 10.6934 2.57733 10.1933C1.56738 9.18338 1 7.8136 1 6.38532C1 4.95705 1.56738 3.58727 2.57733 2.57733C3.58727 1.56738 4.95705 1 6.38532 1C7.8136 1 9.18338 1.56738 10.1933 2.57733V2.57733Z" stroke="#666666" stroke-width="1.5"/>
</svg>
