<svg width="19" height="16" viewBox="0 0 19 16" fill="none" xmlns="http://www.w3.org/2000/svg">
<path d="M9.5 0.0976562C5.18182 0.0976562 1.49409 3.29073 0 7.798C1.49409 12.3053 5.18182 15.4984 9.5 15.4984C13.8182 15.4984 17.5059 12.3053 19 7.798C17.5059 3.29073 13.8182 0.0976562 9.5 0.0976562ZM9.5 12.9316C7.11636 12.9316 5.18182 10.6317 5.18182 7.798C5.18182 4.96428 7.11636 2.66444 9.5 2.66444C11.8836 2.66444 13.8182 4.96428 13.8182 7.798C13.8182 10.6317 11.8836 12.9316 9.5 12.9316ZM9.5 4.71787C8.06636 4.71787 6.90909 6.09366 6.90909 7.798C6.90909 9.50235 8.06636 10.8781 9.5 10.8781C10.9336 10.8781 12.0909 9.50235 12.0909 7.798C12.0909 6.09366 10.9336 4.71787 9.5 4.71787Z" fill="#999999"/>
</svg>
